
  <svg
    width="1000"
    height="1000"
    viewBox="0 0 1000 1000"
    xmlns="http://www.w3.org/2000/svg"
  >
    <defs>
      <filter id="grain" x="-50vw" y="-50vh" width="100vw" height="100vh">
    <feFlood flood-color="#ffffff" result="neutral-gray" />
  
    <feTurbulence
      in="neutral-gray"
      type="fractalNoise"
      baseFrequency="2.5"
      numOctaves="100"
      stitchTiles="stitch"
      result="noise"
    />
  
    <feColorMatrix
      in="noise"
      type="saturate"
      values="0"
      result="destaturatedNoise"
    ></feColorMatrix>
  
    <feComponentTransfer in="desaturatedNoise" result="theNoise">
      <feFuncA type="table" tableValues="0 0 0.1 0"></feFuncA>
    </feComponentTransfer>
  
    <feBlend
      in="SourceGraphic"
      in2="theNoise"
      mode="soft-light"
      result="noisy-image"
    />
  </filter>
      
      <linearGradient id="linearGradientId" gradientTransform="rotate(-45 0.5 0.5)">
      <stop offset="0%"  stop-color="#08AEEA" />
			<stop offset="100%"  stop-color="#2AF598" />
    </linearGradient>
      
      
      
      
      <clipPath id="shape">
        <path fill="currentColor" d="M848.5,619.5Q785,739,678.5,822.5Q572,906,444,862.5Q316,819,192.5,738Q69,657,55,495Q41,333,195,285.5Q349,238,460,166.5Q571,95,681.5,175Q792,255,852,377.5Q912,500,848.5,619.5Z"></path>
      </clipPath>
    </defs>
  
    

    <g filter="url(#grain)" clip-path="url(#shape)">
      <path fill="url(#linearGradientId)" d="M848.5,619.5Q785,739,678.5,822.5Q572,906,444,862.5Q316,819,192.5,738Q69,657,55,495Q41,333,195,285.5Q349,238,460,166.5Q571,95,681.5,175Q792,255,852,377.5Q912,500,848.5,619.5Z" />
    </g>

    
  
  </svg>