<?xml version="1.0" standalone="no"?>
<svg viewBox="0 0 200 200" xmlns="http://www.w3.org/2000/svg">
  <path fill="#FF0066" d="M39.2,-67.3C53,-59.8,68.2,-54,75.9,-43C83.7,-32.1,84,-16,82.7,-0.8C81.3,14.5,78.3,29,71.8,42C65.2,55,55.1,66.5,42.6,73.1C30,79.7,15,81.3,0.9,79.8C-13.2,78.2,-26.4,73.4,-38,66.2C-49.5,59.1,-59.5,49.6,-67.9,38.2C-76.2,26.7,-82.9,13.4,-85.5,-1.5C-88,-16.3,-86.3,-32.6,-79.1,-46C-71.9,-59.4,-59.2,-69.9,-45.1,-77.3C-30.9,-84.7,-15.5,-89,-1.4,-86.5C12.6,-84.1,25.3,-74.9,39.2,-67.3Z" transform="translate(100 100)" />
</svg>
