<?xml version="1.0" encoding="UTF-8" standalone="no"?>
<!-- Created with Inkscape (http://www.inkscape.org/) -->

<svg
   width="210mm"
   height="297mm"
   viewBox="0 0 210 297"
   version="1.1"
   id="svg1"
   inkscape:export-filename="bitmap.svg"
   inkscape:export-xdpi="96"
   inkscape:export-ydpi="96"
   sodipodi:docname="bitmap.svg"
   xmlns:inkscape="http://www.inkscape.org/namespaces/inkscape"
   xmlns:sodipodi="http://sodipodi.sourceforge.net/DTD/sodipodi-0.dtd"
   xmlns="http://www.w3.org/2000/svg"
   xmlns:svg="http://www.w3.org/2000/svg">
  <sodipodi:namedview
     id="namedview1"
     pagecolor="#ffffff"
     bordercolor="#000000"
     borderopacity="0.25"
     inkscape:showpageshadow="2"
     inkscape:pageopacity="0.0"
     inkscape:pagecheckerboard="0"
     inkscape:deskcolor="#d1d1d1"
     inkscape:document-units="mm" />
  <defs
     id="defs1" />
  <g
     inkscape:label="Layer 1"
     inkscape:groupmode="layer"
     id="layer1">
    <path
       id="rect4"
       style="fill:#f800ff;stroke-width:11.9062;stroke-dasharray:none"
       d="M 76.573709,-17.482392 C 59.356854,3.8228642 62.64825,34.835357 83.953506,52.052212 91.959715,58.522058 101.33683,62.09479 110.83742,62.904869 l -1.5e-4,0.09556 1.35449,2.91e-4 c 1.90675,0.109852 3.81615,0.110614 5.71802,-1.85e-4 l 91.8164,-2.96e-4 3.7e-4,-89.362208 c 4.27532,-17.931343 -1.72402,-37.48701 -17.06832,-49.886795 -21.30526,-17.216854 -52.31775,-13.925458 -69.53461,7.379798 -7.85265,9.717377 -11.43678,21.454196 -10.99347,32.980313 l -1.29307,1.73e-4 3e-5,0.173438 c -12.937472,1.100256 -25.420231,7.28954 -34.263401,18.232655 z"
       transform="rotate(51.058197)" />
  </g>
</svg>
