<svg width="517" height="474" viewBox="0 0 517 474" fill="none" xmlns="http://www.w3.org/2000/svg">
<mask id="path-1-inside-1_17_6" fill="white">
<path fill-rule="evenodd" clip-rule="evenodd" d="M43.4133 255.541C-14.8048 196.604 -14.2222 101.632 44.7147 43.4133C103.652 -14.8048 198.625 -14.2222 256.843 44.7147C257.768 45.6515 258.679 46.5973 259.574 47.552C259.952 47.1709 260.332 46.7913 260.715 46.4133C319.652 -11.8048 414.625 -11.2222 472.843 47.7147C531.061 106.652 530.478 201.625 471.541 259.843C471.231 260.15 470.919 260.455 470.606 260.759L472.256 262.429L258.827 473.256L49.7493 261.598C47.5932 259.652 45.4801 257.634 43.4133 255.541Z"/>
</mask>
<path fill-rule="evenodd" clip-rule="evenodd" d="M43.4133 255.541C-14.8048 196.604 -14.2222 101.632 44.7147 43.4133C103.652 -14.8048 198.625 -14.2222 256.843 44.7147C257.768 45.6515 258.679 46.5973 259.574 47.552C259.952 47.1709 260.332 46.7913 260.715 46.4133C319.652 -11.8048 414.625 -11.2222 472.843 47.7147C531.061 106.652 530.478 201.625 471.541 259.843C471.231 260.15 470.919 260.455 470.606 260.759L472.256 262.429L258.827 473.256L49.7493 261.598C47.5932 259.652 45.4801 257.634 43.4133 255.541Z" fill="#95969D"/>
<path d="M44.7147 43.4133L54.5533 53.3734L54.5533 53.3734L44.7147 43.4133ZM43.4133 255.541L53.3734 245.703L53.3734 245.703L43.4133 255.541ZM256.843 44.7147L246.883 54.5533L246.883 54.5534L256.843 44.7147ZM259.574 47.552L249.364 57.1307L259.297 67.7183L269.517 57.408L259.574 47.552ZM260.715 46.4133L250.876 36.4533L250.876 36.4533L260.715 46.4133ZM472.843 47.7147L462.883 57.5533L462.883 57.5533L472.843 47.7147ZM471.541 259.843L481.38 269.803L481.38 269.803L471.541 259.843ZM470.606 260.759L460.853 250.715L450.723 260.552L460.646 270.597L470.606 260.759ZM472.256 262.429L482.095 272.389L492.055 262.551L482.216 252.591L472.256 262.429ZM258.827 473.256L248.867 483.095L258.705 493.055L268.665 483.216L258.827 473.256ZM49.7493 261.598L59.7094 251.759L59.4263 251.472L59.1272 251.203L49.7493 261.598ZM34.8762 33.4533C-29.5615 97.1052 -30.1986 200.942 33.4533 265.38L53.3734 245.703C0.588915 192.267 1.11719 106.158 54.5533 53.3734L34.8762 33.4533ZM266.803 34.8762C203.151 -29.5615 99.3139 -30.1986 34.8762 33.4533L54.5533 53.3734C107.989 0.588916 194.098 1.11719 246.883 54.5533L266.803 34.8762ZM269.784 37.9733C268.807 36.9309 267.813 35.8984 266.803 34.8761L246.883 54.5534C247.724 55.4045 248.551 56.2637 249.364 57.1307L269.784 37.9733ZM250.876 36.4533C250.458 36.866 250.043 37.2802 249.631 37.696L269.517 57.408C269.86 57.0616 270.206 56.7167 270.553 56.3734L250.876 36.4533ZM482.803 37.8762C419.151 -26.5615 315.314 -27.1986 250.876 36.4533L270.553 56.3734C323.989 3.58892 410.098 4.11719 462.883 57.5533L482.803 37.8762ZM481.38 269.803C545.818 206.151 546.455 102.314 482.803 37.8762L462.883 57.5533C515.667 110.989 515.139 197.098 461.703 249.883L481.38 269.803ZM480.359 270.803C480.701 270.471 481.041 270.138 481.38 269.803L461.703 249.882C461.42 250.162 461.137 250.439 460.853 250.715L480.359 270.803ZM460.646 270.597L462.296 272.268L482.216 252.591L480.566 250.92L460.646 270.597ZM462.418 252.469L248.988 463.296L268.665 483.216L482.095 272.389L462.418 252.469ZM268.787 463.418L59.7094 251.759L39.7893 271.436L248.867 483.095L268.787 463.418ZM33.4533 265.38C35.7089 267.663 38.0161 269.868 40.3715 271.993L59.1272 251.203C57.1703 249.437 55.2514 247.604 53.3734 245.703L33.4533 265.38Z" fill="#D31B1B" mask="url(#path-1-inside-1_17_6)"/>
</svg>
