<svg width="60" height="55" viewBox="0 0 60 55" fill="none" xmlns="http://www.w3.org/2000/svg">
<mask id="path-1-inside-1_17_6" fill="white">
<path fill-rule="evenodd" clip-rule="evenodd" d="M5.11321 29.7501C-1.59132 22.9153 -1.52478 11.9001 5.26309 5.14811C12.051 -1.60385 22.9898 -1.53569 29.6943 5.29904C29.8008 5.40768 29.9057 5.51736 30.0088 5.62807C30.0524 5.58387 30.0961 5.53985 30.1402 5.49601C36.9281 -1.25595 47.8669 -1.18779 54.5714 5.64694C61.2759 12.4817 61.2094 23.4969 54.4215 30.2489C54.3857 30.2845 54.3498 30.3199 54.3138 30.3552L54.5038 30.549L29.9228 55L5.84255 30.4521C5.59435 30.2266 5.35111 29.9926 5.11321 29.7501Z"/>
</mask>
<path fill-rule="evenodd" clip-rule="evenodd" d="M5.11321 29.7501C-1.59132 22.9153 -1.52478 11.9001 5.26309 5.14811C12.051 -1.60385 22.9898 -1.53569 29.6943 5.29904C29.8008 5.40768 29.9057 5.51736 30.0088 5.62807C30.0524 5.58387 30.0961 5.53985 30.1402 5.49601C36.9281 -1.25595 47.8669 -1.18779 54.5714 5.64694C61.2759 12.4817 61.2094 23.4969 54.4215 30.2489C54.3857 30.2845 54.3498 30.3199 54.3138 30.3552L54.5038 30.549L29.9228 55L5.84255 30.4521C5.59435 30.2266 5.35111 29.9926 5.11321 29.7501Z" fill="#95969D"/>
<path d="M5.26309 5.14811L1.73695 1.60321L1.73695 1.60321L5.26309 5.14811ZM5.11321 29.7501L8.68258 26.2487L8.68258 26.2487L5.11321 29.7501ZM29.6943 5.29904L33.2637 1.79768L33.2637 1.79767L29.6943 5.29904ZM30.0088 5.62807L26.3505 9.03635L29.9094 12.8564L33.5721 9.13569L30.0088 5.62807ZM30.1402 5.49601L33.6663 9.04092L33.6664 9.04091L30.1402 5.49601ZM54.5714 5.64694L51.002 9.14831L51.002 9.14831L54.5714 5.64694ZM54.4215 30.2489L50.8954 26.704L50.8954 26.704L54.4215 30.2489ZM54.3138 30.3552L50.818 26.7803L47.2375 30.2816L50.7444 33.8566L54.3138 30.3552ZM54.5038 30.549L58.03 34.0939L61.5503 30.5922L58.0732 27.0476L54.5038 30.549ZM29.9228 55L26.3534 58.5013L29.8792 62.0956L33.4489 58.5449L29.9228 55ZM5.84255 30.4521L9.41192 26.9507L9.31118 26.848L9.20471 26.7513L5.84255 30.4521ZM1.73695 1.60321C-6.99948 10.2934 -7.08454 24.4555 1.54383 33.2514L8.68258 26.2487C3.90191 21.3752 3.94991 13.5067 8.78923 8.69301L1.73695 1.60321ZM33.2637 1.79767C24.6162 -7.01768 10.4927 -7.10618 1.73695 1.60321L8.78923 8.69301C13.6093 3.89848 21.3633 3.9463 26.1249 8.80041L33.2637 1.79767ZM33.6672 2.2198C33.5348 2.07768 33.4003 1.93696 33.2637 1.79768L26.1249 8.80041C26.2014 8.87839 26.2766 8.95705 26.3505 9.03635L33.6672 2.2198ZM26.6141 1.95109C26.5575 2.00742 26.5013 2.06388 26.4456 2.12046L33.5721 9.13569C33.6034 9.10387 33.6348 9.07228 33.6663 9.04092L26.6141 1.95109ZM58.1408 2.14557C49.4934 -6.66979 35.3698 -6.75828 26.6141 1.95111L33.6664 9.04091C38.4864 4.24638 46.2404 4.2942 51.002 9.14831L58.1408 2.14557ZM57.9477 33.7938C66.6841 25.1036 66.7692 10.9415 58.1408 2.14557L51.002 9.14831C55.7827 14.0218 55.7347 21.8903 50.8954 26.704L57.9477 33.7938ZM57.8095 33.93C57.8556 33.885 57.9017 33.8396 57.9477 33.7938L50.8954 26.704C50.8698 26.7295 50.844 26.7549 50.818 26.7803L57.8095 33.93ZM50.7444 33.8566L50.9345 34.0503L58.0732 27.0476L57.8831 26.8538L50.7444 33.8566ZM50.9777 27.0041L26.3966 51.4551L33.4489 58.5449L58.03 34.0939L50.9777 27.0041ZM33.4921 51.4986L9.41192 26.9507L2.27317 33.9534L26.3534 58.5013L33.4921 51.4986ZM1.54383 33.2514C1.8489 33.5624 2.16124 33.8629 2.48038 34.1529L9.20471 26.7513C9.02746 26.5903 8.85332 26.4228 8.68258 26.2487L1.54383 33.2514Z" fill="#D31B1B" mask="url(#path-1-inside-1_17_6)"/>
</svg>
